<svg width="28" height="28" viewBox="0 0 28 28" fill="none" xmlns="http://www.w3.org/2000/svg">
<path d="M10.6667 18.1624H17.3333M13.1814 6.29903L7.52949 10.695C7.15168 10.9888 6.96278 11.1357 6.82669 11.3197C6.70614 11.4827 6.61633 11.6663 6.56169 11.8616C6.5 12.082 6.5 12.3213 6.5 12.7999V18.829C6.5 19.7624 6.5 20.2291 6.68166 20.5857C6.84144 20.8993 7.09641 21.1542 7.41002 21.314C7.76654 21.4957 8.23325 21.4957 9.16667 21.4957H18.8333C19.7668 21.4957 20.2335 21.4957 20.59 21.314C20.9036 21.1542 21.1586 20.8993 21.3183 20.5857C21.5 20.2291 21.5 19.7624 21.5 18.829V12.7999C21.5 12.3213 21.5 12.082 21.4383 11.8616C21.3837 11.6663 21.2939 11.4827 21.1733 11.3197C21.0372 11.1357 20.8483 10.9888 20.4705 10.695L14.8186 6.29903C14.5258 6.07132 14.3794 5.95746 14.2178 5.9137C14.0752 5.87508 13.9248 5.87508 13.7822 5.9137C13.6206 5.95746 13.4742 6.07132 13.1814 6.29903Z" stroke="#667085" stroke-width="1.66667" stroke-linecap="round" stroke-linejoin="round"/>
</svg>
