<svg width="217" height="186" viewBox="0 0 217 186" fill="none" xmlns="http://www.w3.org/2000/svg">
<rect width="217" height="186" rx="16" fill="#F7FAFB"/>
<rect x="181.5" y="8.5" width="25" height="25" rx="12.5" fill="white"/>
<rect x="181.5" y="8.5" width="25" height="25" rx="12.5" stroke="#F7FAFB"/>
<path d="M193.174 26.8023L193.106 26.7394L188.315 22.2906C187.476 21.5113 187 20.4176 187 19.2719V19.1816C187 17.2566 188.367 15.6051 190.259 15.2441C191.337 15.0363 192.439 15.2851 193.316 15.9031C193.562 16.0781 193.792 16.2805 194 16.5129C194.115 16.3816 194.238 16.2613 194.369 16.1492C194.47 16.0617 194.574 15.9797 194.684 15.9031C195.561 15.2851 196.663 15.0363 197.741 15.2414C199.633 15.6023 201 17.2566 201 19.1816V19.2719C201 20.4176 200.524 21.5113 199.685 22.2906L194.894 26.7394L194.826 26.8023C194.602 27.0101 194.306 27.1277 194 27.1277C193.694 27.1277 193.398 27.0129 193.174 26.8023ZM193.538 17.9648C193.527 17.9566 193.519 17.9457 193.511 17.9348L193.024 17.3879L193.021 17.3851C192.389 16.6769 191.435 16.3543 190.505 16.532C189.231 16.7754 188.312 17.8855 188.312 19.1816V19.2719C188.312 20.0512 188.638 20.7976 189.209 21.3281L194 25.7769L198.791 21.3281C199.362 20.7976 199.688 20.0512 199.688 19.2719V19.1816C199.688 17.8883 198.769 16.7754 197.497 16.532C196.568 16.3543 195.611 16.6797 194.982 17.3851C194.982 17.3851 194.982 17.3851 194.979 17.3879C194.976 17.3906 194.979 17.3879 194.976 17.3906L194.489 17.9375C194.481 17.9484 194.47 17.9566 194.462 17.9676C194.339 18.0906 194.172 18.159 194 18.159C193.828 18.159 193.661 18.0906 193.538 17.9676V17.9648Z" fill="#204C5B"/>
</svg>
